<svg xmlns="http://www.w3.org/2000/svg" xmlns:xlink="http://www.w3.org/1999/xlink" width="200" height="140" viewBox="0 0 200 140">
  <defs>
    <clipPath id="clip-path">
      <path id="path829" d="M0-800H140v140H0Z" transform="translate(0 799.998)" fill="#f9a791"/>
    </clipPath>
    <clipPath id="clip-casamento">
      <rect width="200" height="140"/>
    </clipPath>
  </defs>
  <g id="casamento" clip-path="url(#clip-casamento)">
    <g id="g823" transform="translate(30 799.998)">
      <g id="g825" transform="translate(0 -799.998)">
        <g id="g827" transform="translate(0 0)" clip-path="url(#clip-path)">
          <path id="path833" d="M174.011-640.726a25.027,25.027,0,0,0-24.706-24.989,35.481,35.481,0,0,1-21.912,31.931c-.229-.539-.418-1.1-.608-1.654.7-.309,1.383-.635,2.051-.993a32.322,32.322,0,0,0,10.9-9.828,30.174,30.174,0,0,0,4.877-12.819,22.356,22.356,0,0,0,.261-3.206,25.358,25.358,0,0,0-.042-3.069c-.3.049-.6.081-.9.142a22.84,22.84,0,0,1-.022,2.878,21,21,0,0,1-.316,3.14,30.218,30.218,0,0,1-4.866,12.246,31.081,31.081,0,0,1-10.514,9.362c-.6.315-1.209.6-1.831.88a24.841,24.841,0,0,1-.973-6.836c0-.064.008-.128.008-.193a25.6,25.6,0,0,0,13.9-20.042,25.148,25.148,0,0,0-11.985,10.634A24.829,24.829,0,0,0,124-640.726a25.033,25.033,0,0,0,25,25,25.037,25.037,0,0,0,23.081-15.4,24.823,24.823,0,0,0,1.925-9.6m5.513.657c.077,1.407.118,2.158.118,2.158s-.041.75-.118,2.158a17.71,17.71,0,0,1-.305,2.573c-.088.5-.146,1.05-.275,1.619q-.223.849-.473,1.8a28.515,28.515,0,0,1-3.943,8.56,30.045,30.045,0,0,1-8.677,8.5,30.9,30.9,0,0,1-13.447,4.591c-1.248.083-2.57.133-3.811.1a28.8,28.8,0,0,1-3.95-.42,29.117,29.117,0,0,1-7.649-2.382,30.882,30.882,0,0,1-6.912-4.521,32.617,32.617,0,0,1-5.523-6.354,33.268,33.268,0,0,1-3.56-7.739,32.387,32.387,0,0,1-1.221-8.486,35.056,35.056,0,0,1,.339-4.326A30.364,30.364,0,0,1,121-646.4a33.209,33.209,0,0,1,3.563-7.737,32.413,32.413,0,0,1,5.524-6.351A30.922,30.922,0,0,1,137-665a30.209,30.209,0,0,1,15.432-2.7,30.937,30.937,0,0,1,13.419,4.586,29.98,29.98,0,0,1,8.674,8.5,28.509,28.509,0,0,1,3.945,8.559q.252.952.473,1.8c.13.57.187,1.118.275,1.619a17.7,17.7,0,0,1,.305,2.574m.118,2.158s-.036-.751-.1-2.16a17.386,17.386,0,0,0-.283-2.577c-.082-.5-.137-1.053-.261-1.626q-.215-.854-.456-1.812a31.007,31.007,0,0,0-3.825-8.664,32.178,32.178,0,0,0-8.517-8.891,31.807,31.807,0,0,0-13.684-5.325,31.848,31.848,0,0,0-16.317,2.16,33.043,33.043,0,0,0-7.618,4.525,33.974,33.974,0,0,0-6.17,6.715,32.632,32.632,0,0,0-4.03,8.377,32.409,32.409,0,0,0-1.023,4.626,35.938,35.938,0,0,0-.393,4.652,35.123,35.123,0,0,0,1.419,9.278,32.49,32.49,0,0,0,4.033,8.373,33.708,33.708,0,0,0,6.169,6.711,33.1,33.1,0,0,0,7.616,4.526,30.75,30.75,0,0,0,8.256,2.179,30.425,30.425,0,0,0,4.061.255c1.405-.019,2.708-.132,4.025-.275a31.828,31.828,0,0,0,13.653-5.32,32.184,32.184,0,0,0,8.52-8.887,31.005,31.005,0,0,0,3.825-8.666q.244-.956.456-1.81c.124-.573.178-1.122.261-1.626a17.385,17.385,0,0,0,.283-2.579c.063-1.408.1-2.158.1-2.158m5.63-2.815a36.045,36.045,0,0,1-3.159,14.775,36.31,36.31,0,0,1-33.107,21.49,36.323,36.323,0,0,1-34.961-26.651c-.049,0-.1,0-.146,0a35.466,35.466,0,0,1-35.426-35.427,35.393,35.393,0,0,1,14.182-28.331l5.716,5.566-.583.346-1.867,1.109-2.31,1.822a21.378,21.378,0,0,0-2.639,2.521,23.828,23.828,0,0,0-2.713,3.347l-.7.949c-.193.347-.391.7-.589,1.058-.4.72-.8,1.462-1.218,2.222-.4.77-.646,1.633-.987,2.477a14.61,14.61,0,0,0-.852,2.667q-.314,1.409-.64,2.872c-.149.977-.179,1.971-.276,2.983q-.057.774-.116,1.563.033.785.066,1.584c.028.531.03,1.068.08,1.605.077.537.154,1.075.234,1.617a29.327,29.327,0,0,0,5.108,12.709A31.508,31.508,0,0,0,99.421-636.2a30.505,30.505,0,0,0,3.472,1.531l1.8.644,1.853.476a31.157,31.157,0,0,0,3.805.691c1.119.115,2.175.162,3.3.194q-.161-.7-.291-1.412c-.965-.027-1.974-.067-2.92-.163a30.173,30.173,0,0,1-3.583-.634l-1.776-.443-1.724-.608a28.619,28.619,0,0,1-3.335-1.444,30.222,30.222,0,0,1-10.657-9.187,29.267,29.267,0,0,1-5.089-12.165c-.088-.523-.173-1.043-.259-1.558-.055-.518-.068-1.04-.107-1.552s-.063-1.025-.093-1.533c.027-.5.058-1,.085-1.5.077-1.007.088-2.018.215-2.975q.289-1.409.566-2.762a14.28,14.28,0,0,1,.778-2.6c.316-.83.545-1.677.907-2.442q.578-1.134,1.122-2.21.277-.536.545-1.059c.222-.322.44-.638.657-.95a23.145,23.145,0,0,1,2.565-3.379,21.14,21.14,0,0,1,2.53-2.577c.835-.708,1.58-1.34,2.227-1.89.715-.465,1.32-.861,1.812-1.182.217-.143.4-.264.577-.377l1.432,1.393a25.556,25.556,0,0,0-11.512,21.338,25.582,25.582,0,0,0,24.419,25.515,36.037,36.037,0,0,1,4.562-17.3,36.282,36.282,0,0,1,31.7-18.675,36.306,36.306,0,0,1,36.267,36.266m-59.02-70.716H113.814l7.659,9.286Zm-14.267,0H100.578l3.737,9.2Zm25.2,9.894-9.618-9.33-4.8,9.33ZM99.41-710.543l-9.372,8.994h13.021ZM116.8-680.074l20.565-20.287H122.152ZM90.075-700.361l20.12,19.937-6.6-19.937Zm30.043-1.187L112.9-710.3l-7.291,8.751Zm-6.453,23.667,1.162-.7,5.87-21.781H105.079l7.321,21.676Zm21.425-17.025a35.606,35.606,0,0,1,11.712,15.28,35.848,35.848,0,0,0-6.126,1.158c-.2.056-.4.109-.591.168-1.015.3-2.009.648-2.986,1.035a25.756,25.756,0,0,0-9.155-10.617" transform="translate(-64.74 726.94)" fill="#f9a791"/>
        </g>
      </g>
    </g>
  </g>
</svg>
