<svg xmlns="http://www.w3.org/2000/svg" xmlns:xlink="http://www.w3.org/1999/xlink" width="200" height="140" viewBox="0 0 200 140">
  <defs>
    <clipPath id="clip-corporativo">
      <rect width="200" height="140"/>
    </clipPath>
  </defs>
  <g id="corporativo" clip-path="url(#clip-corporativo)">
    <g id="layer1" transform="translate(-50.73 -44.19)">
      <path id="path13840" d="M118.993,45.19a36.476,36.476,0,1,0,23.16,64.66l13.4,4.917-6.306-12.708A36.481,36.481,0,0,0,118.993,45.19Zm51.585,74.533c-10.783,0-19.535,8.146-19.535,18.185s8.752,18.166,19.535,18.166,19.516-8.126,19.516-18.166S181.361,119.723,170.578,119.723ZM82.16,134.977c-6.748,0-12.226,5.095-12.226,11.378s5.478,11.358,12.226,11.358,12.226-5.075,12.226-11.358S88.908,134.977,82.16,134.977Zm39.3,0c-6.748,0-12.226,5.095-12.226,11.378s5.478,11.358,12.226,11.358,12.207-5.075,12.207-11.358S128.209,134.977,121.461,134.977Zm98.233,0c-6.748,0-12.226,5.095-12.226,11.378s5.478,11.358,12.226,11.358,12.207-5.075,12.207-11.358S226.443,134.977,219.695,134.977Zm-61.9,23.584a13.444,13.444,0,0,0-13.48,13.46v12.111h52.511V172.021a13.428,13.428,0,0,0-13.46-13.46H157.793Zm-83.635,2.411A8.409,8.409,0,0,0,65.73,169.4v7.579H98.59V169.4a8.409,8.409,0,0,0-8.427-8.427H74.157Zm39.3,0a8.409,8.409,0,0,0-8.427,8.427v7.579h32.86V169.4a8.409,8.409,0,0,0-8.427-8.427H113.458Zm98.234,0a8.409,8.409,0,0,0-8.427,8.427v7.579h32.86V169.4a8.409,8.409,0,0,0-8.427-8.427H211.692Z" transform="translate(0)" fill="#f9a791"/>
    </g>
  </g>
</svg>
